<?xml version="1.0" encoding="utf-8" standalone="no"?>
<!DOCTYPE svg PUBLIC "-//W3C//DTD SVG 1.1//EN"
  "http://www.w3.org/Graphics/SVG/1.1/DTD/svg11.dtd">
<svg xmlns:xlink="http://www.w3.org/1999/xlink" width="576pt" height="576pt" viewBox="0 0 576 576" xmlns="http://www.w3.org/2000/svg" version="1.1">
 <metadata>
  <rdf:RDF xmlns:dc="http://purl.org/dc/elements/1.1/" xmlns:cc="http://creativecommons.org/ns#" xmlns:rdf="http://www.w3.org/1999/02/22-rdf-syntax-ns#">
   <cc:Work>
    <dc:type rdf:resource="http://purl.org/dc/dcmitype/StillImage"/>
    <dc:date>2023-09-11T18:17:30.271711</dc:date>
    <dc:format>image/svg+xml</dc:format>
    <dc:creator>
     <cc:Agent>
      <dc:title>Matplotlib v3.7.2, https://matplotlib.org/</dc:title>
     </cc:Agent>
    </dc:creator>
   </cc:Work>
  </rdf:RDF>
 </metadata>
 <defs>
  <style type="text/css">*{stroke-linejoin: round; stroke-linecap: butt}</style>
 </defs>
 <g id="figure_1">
  <g id="patch_1">
   <path d="M 0 576 
L 576 576 
L 576 0 
L 0 0 
z
" style="fill: #ffffff"/>
  </g>
  <g id="axes_1">
   <g id="patch_2">
    <path d="M 72 270.72 
L 518.4 270.72 
L 518.4 69.12 
L 72 69.12 
z
" style="fill: #ffffff"/>
   </g>
   <g id="matplotlib.axis_1">
    <g id="xtick_1">
     <g id="line2d_1">
      <defs>
       <path id="mfd78f3bac0" d="M 0 0 
L 0 3.5 
" style="stroke: #000000; stroke-width: 0.8"/>
      </defs>
      <g>
       <use xlink:href="#mfd78f3bac0" x="96.876546" y="270.72" style="stroke: #000000; stroke-width: 0.8"/>
      </g>
     </g>
     <g id="text_1">
      <!-- 9.9150 -->
      <g transform="translate(79.381233 285.318437) scale(0.1 -0.1)">
       <defs>
        <path id="DejaVuSans-39" d="M 703 97 
L 703 672 
Q 941 559 1184 500 
Q 1428 441 1663 441 
Q 2288 441 2617 861 
Q 2947 1281 2994 2138 
Q 2813 1869 2534 1725 
Q 2256 1581 1919 1581 
Q 1219 1581 811 2004 
Q 403 2428 403 3163 
Q 403 3881 828 4315 
Q 1253 4750 1959 4750 
Q 2769 4750 3195 4129 
Q 3622 3509 3622 2328 
Q 3622 1225 3098 567 
Q 2575 -91 1691 -91 
Q 1453 -91 1209 -44 
Q 966 3 703 97 
z
M 1959 2075 
Q 2384 2075 2632 2365 
Q 2881 2656 2881 3163 
Q 2881 3666 2632 3958 
Q 2384 4250 1959 4250 
Q 1534 4250 1286 3958 
Q 1038 3666 1038 3163 
Q 1038 2656 1286 2365 
Q 1534 2075 1959 2075 
z
" transform="scale(0.015625)"/>
        <path id="DejaVuSans-2e" d="M 684 794 
L 1344 794 
L 1344 0 
L 684 0 
L 684 794 
z
" transform="scale(0.015625)"/>
        <path id="DejaVuSans-31" d="M 794 531 
L 1825 531 
L 1825 4091 
L 703 3866 
L 703 4441 
L 1819 4666 
L 2450 4666 
L 2450 531 
L 3481 531 
L 3481 0 
L 794 0 
L 794 531 
z
" transform="scale(0.015625)"/>
        <path id="DejaVuSans-35" d="M 691 4666 
L 3169 4666 
L 3169 4134 
L 1269 4134 
L 1269 2991 
Q 1406 3038 1543 3061 
Q 1681 3084 1819 3084 
Q 2600 3084 3056 2656 
Q 3513 2228 3513 1497 
Q 3513 744 3044 326 
Q 2575 -91 1722 -91 
Q 1428 -91 1123 -41 
Q 819 9 494 109 
L 494 744 
Q 775 591 1075 516 
Q 1375 441 1709 441 
Q 2250 441 2565 725 
Q 2881 1009 2881 1497 
Q 2881 1984 2565 2268 
Q 2250 2553 1709 2553 
Q 1456 2553 1204 2497 
Q 953 2441 691 2322 
L 691 4666 
z
" transform="scale(0.015625)"/>
        <path id="DejaVuSans-30" d="M 2034 4250 
Q 1547 4250 1301 3770 
Q 1056 3291 1056 2328 
Q 1056 1369 1301 889 
Q 1547 409 2034 409 
Q 2525 409 2770 889 
Q 3016 1369 3016 2328 
Q 3016 3291 2770 3770 
Q 2525 4250 2034 4250 
z
M 2034 4750 
Q 2819 4750 3233 4129 
Q 3647 3509 3647 2328 
Q 3647 1150 3233 529 
Q 2819 -91 2034 -91 
Q 1250 -91 836 529 
Q 422 1150 422 2328 
Q 422 3509 836 4129 
Q 1250 4750 2034 4750 
z
" transform="scale(0.015625)"/>
       </defs>
       <use xlink:href="#DejaVuSans-39"/>
       <use xlink:href="#DejaVuSans-2e" x="63.623047"/>
       <use xlink:href="#DejaVuSans-39" x="95.410156"/>
       <use xlink:href="#DejaVuSans-31" x="159.033203"/>
       <use xlink:href="#DejaVuSans-35" x="222.65625"/>
       <use xlink:href="#DejaVuSans-30" x="286.279297"/>
      </g>
     </g>
    </g>
    <g id="xtick_2">
     <g id="line2d_2">
      <g>
       <use xlink:href="#mfd78f3bac0" x="151.282077" y="270.72" style="stroke: #000000; stroke-width: 0.8"/>
      </g>
     </g>
     <g id="text_2">
      <!-- 9.9175 -->
      <g transform="translate(133.786765 285.318437) scale(0.1 -0.1)">
       <defs>
        <path id="DejaVuSans-37" d="M 525 4666 
L 3525 4666 
L 3525 4397 
L 1831 0 
L 1172 0 
L 2766 4134 
L 525 4134 
L 525 4666 
z
" transform="scale(0.015625)"/>
       </defs>
       <use xlink:href="#DejaVuSans-39"/>
       <use xlink:href="#DejaVuSans-2e" x="63.623047"/>
       <use xlink:href="#DejaVuSans-39" x="95.410156"/>
       <use xlink:href="#DejaVuSans-31" x="159.033203"/>
       <use xlink:href="#DejaVuSans-37" x="222.65625"/>
       <use xlink:href="#DejaVuSans-35" x="286.279297"/>
      </g>
     </g>
    </g>
    <g id="xtick_3">
     <g id="line2d_3">
      <g>
       <use xlink:href="#mfd78f3bac0" x="205.687609" y="270.72" style="stroke: #000000; stroke-width: 0.8"/>
      </g>
     </g>
     <g id="text_3">
      <!-- 9.9200 -->
      <g transform="translate(188.192296 285.318437) scale(0.1 -0.1)">
       <defs>
        <path id="DejaVuSans-32" d="M 1228 531 
L 3431 531 
L 3431 0 
L 469 0 
L 469 531 
Q 828 903 1448 1529 
Q 2069 2156 2228 2338 
Q 2531 2678 2651 2914 
Q 2772 3150 2772 3378 
Q 2772 3750 2511 3984 
Q 2250 4219 1831 4219 
Q 1534 4219 1204 4116 
Q 875 4013 500 3803 
L 500 4441 
Q 881 4594 1212 4672 
Q 1544 4750 1819 4750 
Q 2544 4750 2975 4387 
Q 3406 4025 3406 3419 
Q 3406 3131 3298 2873 
Q 3191 2616 2906 2266 
Q 2828 2175 2409 1742 
Q 1991 1309 1228 531 
z
" transform="scale(0.015625)"/>
       </defs>
       <use xlink:href="#DejaVuSans-39"/>
       <use xlink:href="#DejaVuSans-2e" x="63.623047"/>
       <use xlink:href="#DejaVuSans-39" x="95.410156"/>
       <use xlink:href="#DejaVuSans-32" x="159.033203"/>
       <use xlink:href="#DejaVuSans-30" x="222.65625"/>
       <use xlink:href="#DejaVuSans-30" x="286.279297"/>
      </g>
     </g>
    </g>
    <g id="xtick_4">
     <g id="line2d_4">
      <g>
       <use xlink:href="#mfd78f3bac0" x="260.09314" y="270.72" style="stroke: #000000; stroke-width: 0.8"/>
      </g>
     </g>
     <g id="text_4">
      <!-- 9.9225 -->
      <g transform="translate(242.597828 285.318437) scale(0.1 -0.1)">
       <use xlink:href="#DejaVuSans-39"/>
       <use xlink:href="#DejaVuSans-2e" x="63.623047"/>
       <use xlink:href="#DejaVuSans-39" x="95.410156"/>
       <use xlink:href="#DejaVuSans-32" x="159.033203"/>
       <use xlink:href="#DejaVuSans-32" x="222.65625"/>
       <use xlink:href="#DejaVuSans-35" x="286.279297"/>
      </g>
     </g>
    </g>
    <g id="xtick_5">
     <g id="line2d_5">
      <g>
       <use xlink:href="#mfd78f3bac0" x="314.498672" y="270.72" style="stroke: #000000; stroke-width: 0.8"/>
      </g>
     </g>
     <g id="text_5">
      <!-- 9.9250 -->
      <g transform="translate(297.003359 285.318437) scale(0.1 -0.1)">
       <use xlink:href="#DejaVuSans-39"/>
       <use xlink:href="#DejaVuSans-2e" x="63.623047"/>
       <use xlink:href="#DejaVuSans-39" x="95.410156"/>
       <use xlink:href="#DejaVuSans-32" x="159.033203"/>
       <use xlink:href="#DejaVuSans-35" x="222.65625"/>
       <use xlink:href="#DejaVuSans-30" x="286.279297"/>
      </g>
     </g>
    </g>
    <g id="xtick_6">
     <g id="line2d_6">
      <g>
       <use xlink:href="#mfd78f3bac0" x="368.904203" y="270.72" style="stroke: #000000; stroke-width: 0.8"/>
      </g>
     </g>
     <g id="text_6">
      <!-- 9.9275 -->
      <g transform="translate(351.408891 285.318437) scale(0.1 -0.1)">
       <use xlink:href="#DejaVuSans-39"/>
       <use xlink:href="#DejaVuSans-2e" x="63.623047"/>
       <use xlink:href="#DejaVuSans-39" x="95.410156"/>
       <use xlink:href="#DejaVuSans-32" x="159.033203"/>
       <use xlink:href="#DejaVuSans-37" x="222.65625"/>
       <use xlink:href="#DejaVuSans-35" x="286.279297"/>
      </g>
     </g>
    </g>
    <g id="xtick_7">
     <g id="line2d_7">
      <g>
       <use xlink:href="#mfd78f3bac0" x="423.309734" y="270.72" style="stroke: #000000; stroke-width: 0.8"/>
      </g>
     </g>
     <g id="text_7">
      <!-- 9.9300 -->
      <g transform="translate(405.814422 285.318437) scale(0.1 -0.1)">
       <defs>
        <path id="DejaVuSans-33" d="M 2597 2516 
Q 3050 2419 3304 2112 
Q 3559 1806 3559 1356 
Q 3559 666 3084 287 
Q 2609 -91 1734 -91 
Q 1441 -91 1130 -33 
Q 819 25 488 141 
L 488 750 
Q 750 597 1062 519 
Q 1375 441 1716 441 
Q 2309 441 2620 675 
Q 2931 909 2931 1356 
Q 2931 1769 2642 2001 
Q 2353 2234 1838 2234 
L 1294 2234 
L 1294 2753 
L 1863 2753 
Q 2328 2753 2575 2939 
Q 2822 3125 2822 3475 
Q 2822 3834 2567 4026 
Q 2313 4219 1838 4219 
Q 1578 4219 1281 4162 
Q 984 4106 628 3988 
L 628 4550 
Q 988 4650 1302 4700 
Q 1616 4750 1894 4750 
Q 2613 4750 3031 4423 
Q 3450 4097 3450 3541 
Q 3450 3153 3228 2886 
Q 3006 2619 2597 2516 
z
" transform="scale(0.015625)"/>
       </defs>
       <use xlink:href="#DejaVuSans-39"/>
       <use xlink:href="#DejaVuSans-2e" x="63.623047"/>
       <use xlink:href="#DejaVuSans-39" x="95.410156"/>
       <use xlink:href="#DejaVuSans-33" x="159.033203"/>
       <use xlink:href="#DejaVuSans-30" x="222.65625"/>
       <use xlink:href="#DejaVuSans-30" x="286.279297"/>
      </g>
     </g>
    </g>
    <g id="xtick_8">
     <g id="line2d_8">
      <g>
       <use xlink:href="#mfd78f3bac0" x="477.715266" y="270.72" style="stroke: #000000; stroke-width: 0.8"/>
      </g>
     </g>
     <g id="text_8">
      <!-- 9.9325 -->
      <g transform="translate(460.219953 285.318437) scale(0.1 -0.1)">
       <use xlink:href="#DejaVuSans-39"/>
       <use xlink:href="#DejaVuSans-2e" x="63.623047"/>
       <use xlink:href="#DejaVuSans-39" x="95.410156"/>
       <use xlink:href="#DejaVuSans-33" x="159.033203"/>
       <use xlink:href="#DejaVuSans-32" x="222.65625"/>
       <use xlink:href="#DejaVuSans-35" x="286.279297"/>
      </g>
     </g>
    </g>
   </g>
   <g id="matplotlib.axis_2">
    <g id="ytick_1">
     <g id="line2d_9">
      <defs>
       <path id="med74b066ad" d="M 0 0 
L -3.5 0 
" style="stroke: #000000; stroke-width: 0.8"/>
      </defs>
      <g>
       <use xlink:href="#med74b066ad" x="72" y="266.990926" style="stroke: #000000; stroke-width: 0.8"/>
      </g>
     </g>
     <g id="text_9">
      <!-- 0 -->
      <g transform="translate(58.6375 270.790145) scale(0.1 -0.1)">
       <use xlink:href="#DejaVuSans-30"/>
      </g>
     </g>
    </g>
    <g id="ytick_2">
     <g id="line2d_10">
      <g>
       <use xlink:href="#med74b066ad" x="72" y="237.662822" style="stroke: #000000; stroke-width: 0.8"/>
      </g>
     </g>
     <g id="text_10">
      <!-- 2000 -->
      <g transform="translate(39.55 241.46204) scale(0.1 -0.1)">
       <use xlink:href="#DejaVuSans-32"/>
       <use xlink:href="#DejaVuSans-30" x="63.623047"/>
       <use xlink:href="#DejaVuSans-30" x="127.246094"/>
       <use xlink:href="#DejaVuSans-30" x="190.869141"/>
      </g>
     </g>
    </g>
    <g id="ytick_3">
     <g id="line2d_11">
      <g>
       <use xlink:href="#med74b066ad" x="72" y="208.334717" style="stroke: #000000; stroke-width: 0.8"/>
      </g>
     </g>
     <g id="text_11">
      <!-- 4000 -->
      <g transform="translate(39.55 212.133936) scale(0.1 -0.1)">
       <defs>
        <path id="DejaVuSans-34" d="M 2419 4116 
L 825 1625 
L 2419 1625 
L 2419 4116 
z
M 2253 4666 
L 3047 4666 
L 3047 1625 
L 3713 1625 
L 3713 1100 
L 3047 1100 
L 3047 0 
L 2419 0 
L 2419 1100 
L 313 1100 
L 313 1709 
L 2253 4666 
z
" transform="scale(0.015625)"/>
       </defs>
       <use xlink:href="#DejaVuSans-34"/>
       <use xlink:href="#DejaVuSans-30" x="63.623047"/>
       <use xlink:href="#DejaVuSans-30" x="127.246094"/>
       <use xlink:href="#DejaVuSans-30" x="190.869141"/>
      </g>
     </g>
    </g>
    <g id="ytick_4">
     <g id="line2d_12">
      <g>
       <use xlink:href="#med74b066ad" x="72" y="179.006613" style="stroke: #000000; stroke-width: 0.8"/>
      </g>
     </g>
     <g id="text_12">
      <!-- 6000 -->
      <g transform="translate(39.55 182.805832) scale(0.1 -0.1)">
       <defs>
        <path id="DejaVuSans-36" d="M 2113 2584 
Q 1688 2584 1439 2293 
Q 1191 2003 1191 1497 
Q 1191 994 1439 701 
Q 1688 409 2113 409 
Q 2538 409 2786 701 
Q 3034 994 3034 1497 
Q 3034 2003 2786 2293 
Q 2538 2584 2113 2584 
z
M 3366 4563 
L 3366 3988 
Q 3128 4100 2886 4159 
Q 2644 4219 2406 4219 
Q 1781 4219 1451 3797 
Q 1122 3375 1075 2522 
Q 1259 2794 1537 2939 
Q 1816 3084 2150 3084 
Q 2853 3084 3261 2657 
Q 3669 2231 3669 1497 
Q 3669 778 3244 343 
Q 2819 -91 2113 -91 
Q 1303 -91 875 529 
Q 447 1150 447 2328 
Q 447 3434 972 4092 
Q 1497 4750 2381 4750 
Q 2619 4750 2861 4703 
Q 3103 4656 3366 4563 
z
" transform="scale(0.015625)"/>
       </defs>
       <use xlink:href="#DejaVuSans-36"/>
       <use xlink:href="#DejaVuSans-30" x="63.623047"/>
       <use xlink:href="#DejaVuSans-30" x="127.246094"/>
       <use xlink:href="#DejaVuSans-30" x="190.869141"/>
      </g>
     </g>
    </g>
    <g id="ytick_5">
     <g id="line2d_13">
      <g>
       <use xlink:href="#med74b066ad" x="72" y="149.678509" style="stroke: #000000; stroke-width: 0.8"/>
      </g>
     </g>
     <g id="text_13">
      <!-- 8000 -->
      <g transform="translate(39.55 153.477728) scale(0.1 -0.1)">
       <defs>
        <path id="DejaVuSans-38" d="M 2034 2216 
Q 1584 2216 1326 1975 
Q 1069 1734 1069 1313 
Q 1069 891 1326 650 
Q 1584 409 2034 409 
Q 2484 409 2743 651 
Q 3003 894 3003 1313 
Q 3003 1734 2745 1975 
Q 2488 2216 2034 2216 
z
M 1403 2484 
Q 997 2584 770 2862 
Q 544 3141 544 3541 
Q 544 4100 942 4425 
Q 1341 4750 2034 4750 
Q 2731 4750 3128 4425 
Q 3525 4100 3525 3541 
Q 3525 3141 3298 2862 
Q 3072 2584 2669 2484 
Q 3125 2378 3379 2068 
Q 3634 1759 3634 1313 
Q 3634 634 3220 271 
Q 2806 -91 2034 -91 
Q 1263 -91 848 271 
Q 434 634 434 1313 
Q 434 1759 690 2068 
Q 947 2378 1403 2484 
z
M 1172 3481 
Q 1172 3119 1398 2916 
Q 1625 2713 2034 2713 
Q 2441 2713 2670 2916 
Q 2900 3119 2900 3481 
Q 2900 3844 2670 4047 
Q 2441 4250 2034 4250 
Q 1625 4250 1398 4047 
Q 1172 3844 1172 3481 
z
" transform="scale(0.015625)"/>
       </defs>
       <use xlink:href="#DejaVuSans-38"/>
       <use xlink:href="#DejaVuSans-30" x="63.623047"/>
       <use xlink:href="#DejaVuSans-30" x="127.246094"/>
       <use xlink:href="#DejaVuSans-30" x="190.869141"/>
      </g>
     </g>
    </g>
    <g id="ytick_6">
     <g id="line2d_14">
      <g>
       <use xlink:href="#med74b066ad" x="72" y="120.350405" style="stroke: #000000; stroke-width: 0.8"/>
      </g>
     </g>
     <g id="text_14">
      <!-- 10000 -->
      <g transform="translate(33.1875 124.149623) scale(0.1 -0.1)">
       <use xlink:href="#DejaVuSans-31"/>
       <use xlink:href="#DejaVuSans-30" x="63.623047"/>
       <use xlink:href="#DejaVuSans-30" x="127.246094"/>
       <use xlink:href="#DejaVuSans-30" x="190.869141"/>
       <use xlink:href="#DejaVuSans-30" x="254.492188"/>
      </g>
     </g>
    </g>
    <g id="ytick_7">
     <g id="line2d_15">
      <g>
       <use xlink:href="#med74b066ad" x="72" y="91.0223" style="stroke: #000000; stroke-width: 0.8"/>
      </g>
     </g>
     <g id="text_15">
      <!-- 12000 -->
      <g transform="translate(33.1875 94.821519) scale(0.1 -0.1)">
       <use xlink:href="#DejaVuSans-31"/>
       <use xlink:href="#DejaVuSans-32" x="63.623047"/>
       <use xlink:href="#DejaVuSans-30" x="127.246094"/>
       <use xlink:href="#DejaVuSans-30" x="190.869141"/>
       <use xlink:href="#DejaVuSans-30" x="254.492188"/>
      </g>
     </g>
    </g>
   </g>
   <g id="line2d_16">
    <path d="M 71.713987 265.260568 
L 72.394056 264.849974 
L 73.074126 265.011279 
L 74.434264 265.025943 
L 75.114333 265.480529 
L 75.794402 265.040607 
L 76.474471 264.248748 
L 77.15454 264.498037 
L 77.83461 264.600685 
L 78.514679 264.116772 
L 79.194748 264.131436 
L 79.874817 264.439381 
L 80.554886 264.527365 
L 81.234955 264.732662 
L 81.915024 265.113927 
L 82.595094 265.201912 
L 83.275163 265.055271 
L 83.955232 265.172583 
L 84.635301 265.627169 
L 85.31537 265.891122 
L 85.995439 265.744481 
L 87.355578 265.832466 
L 88.035647 265.348552 
L 88.715716 265.201912 
L 89.395785 265.539185 
L 90.075854 265.612505 
L 91.435992 265.583177 
L 93.4762 265.788474 
L 94.156269 265.685825 
L 94.836338 264.996615 
L 95.516407 264.820646 
L 96.196476 265.84713 
L 96.876546 266.243059 
L 97.556615 266.199067 
L 98.236684 266.53634 
L 98.916753 266.184403 
L 99.596822 266.037763 
L 100.276891 266.46302 
L 100.95696 266.287051 
L 101.63703 266.257723 
L 102.317099 266.46302 
L 102.997168 266.433692 
L 103.677237 266.785629 
L 104.357306 266.946934 
L 105.037375 266.829621 
L 105.717444 266.081755 
L 107.077583 265.363216 
L 109.11779 264.483373 
L 110.477928 265.583177 
L 111.157998 264.849974 
L 111.838067 264.83531 
L 112.518136 265.568513 
L 114.558343 265.099263 
L 115.238412 264.366061 
L 115.918482 263.295585 
L 116.598551 262.914319 
L 117.27862 263.779499 
L 117.958689 263.808827 
L 118.638758 262.694359 
L 119.998896 263.500882 
L 120.678966 262.415742 
L 121.359035 262.269101 
L 122.039104 262.635702 
L 122.719173 262.489062 
L 124.75938 263.574202 
L 125.43945 264.131436 
L 126.799588 264.600685 
L 127.479657 264.366061 
L 128.159726 263.720842 
L 128.839795 263.53021 
L 129.519864 263.104952 
L 130.880003 261.521234 
L 131.560072 260.582735 
L 132.240141 260.465423 
L 132.92021 260.934672 
L 134.960418 261.726531 
L 136.320556 263.852819 
L 137.000625 262.840999 
L 137.680694 262.44507 
L 138.360763 263.354241 
L 140.400971 263.618194 
L 141.08104 262.283765 
L 141.761109 261.623883 
L 142.441178 262.811671 
L 143.121247 264.322068 
L 143.801316 264.68867 
L 144.481386 265.201912 
L 145.161455 266.521676 
L 145.841524 266.902942 
L 146.521593 266.93227 
L 147.881731 266.697645 
L 148.5618 265.480529 
L 149.24187 265.30456 
L 149.921939 266.360372 
L 150.602008 266.081755 
L 151.282077 266.712309 
L 151.962146 266.067091 
L 152.642215 265.876458 
L 153.322284 264.644678 
L 154.002354 264.351397 
L 154.682423 265.069935 
L 155.362492 264.732662 
L 156.042561 265.333888 
L 156.72263 265.436536 
L 157.402699 264.439381 
L 158.082768 264.116772 
L 159.442907 262.005148 
L 160.803045 259.365619 
L 161.483114 259.58558 
L 162.163183 258.617752 
L 162.843252 260.054829 
L 163.523322 263.882147 
L 164.203391 262.694359 
L 164.88346 262.078468 
L 165.563529 265.128591 
L 166.243598 265.84713 
L 166.923667 266.961598 
L 167.603736 266.477684 
L 168.283806 264.527365 
L 168.963875 262.972976 
L 169.643944 262.98764 
L 170.324013 262.533054 
L 171.684151 259.306963 
L 172.36422 261.741195 
L 173.04429 264.981951 
L 173.724359 264.512701 
L 174.404428 262.034476 
L 175.084497 261.301274 
L 175.764566 266.184403 
L 176.444635 265.172583 
L 177.124704 263.383569 
L 177.804774 260.788032 
L 179.164912 266.961598 
L 179.844981 265.172583 
L 180.52505 256.652769 
L 181.205119 257.679253 
L 181.885188 265.935114 
L 182.565258 265.040607 
L 183.245327 266.228395 
L 183.925396 264.395389 
L 184.605465 252.150905 
L 185.285534 255.831582 
L 185.965603 266.492348 
L 186.645673 263.984795 
L 187.325742 265.143255 
L 188.005811 266.653653 
L 188.68588 265.069935 
L 189.365949 265.363216 
L 190.046018 260.436095 
L 190.726087 260.773368 
L 191.406157 265.260568 
L 192.086226 265.832466 
L 192.766295 265.861794 
L 193.446364 262.430406 
L 194.126433 266.902942 
L 194.806502 266.46302 
L 195.486571 262.797007 
L 196.166641 266.243059 
L 196.84671 264.160764 
L 197.526779 266.93227 
L 198.206848 263.955467 
L 198.886917 266.3897 
L 199.566986 263.691514 
L 200.247055 266.580332 
L 200.927125 262.005148 
L 201.607194 258.837713 
L 202.287263 265.069935 
L 202.967332 264.996615 
L 203.647401 266.184403 
L 204.32747 264.542029 
L 205.007539 263.251593 
L 205.687609 260.81736 
L 206.367678 260.377438 
L 207.047747 260.245462 
L 207.727816 265.348552 
L 208.407885 262.210445 
L 209.087954 265.583177 
L 209.768023 264.043451 
L 210.448093 253.426678 
L 211.128162 259.849533 
L 211.808231 259.73222 
L 212.4883 250.83114 
L 213.168369 254.057232 
L 213.848438 246.094652 
L 214.528507 248.675525 
L 215.208577 257.95787 
L 215.888646 252.121577 
L 216.568715 254.394505 
L 217.248784 253.294701 
L 217.928853 262.972976 
L 219.288991 180.971596 
L 219.969061 226.826087 
L 220.64913 245.420105 
L 221.329199 259.468267 
L 222.009268 246.358605 
L 222.689337 224.890432 
L 223.369406 234.51005 
L 224.049475 260.788032 
L 224.729545 217.543742 
L 225.409614 193.553353 
L 226.089683 251.447031 
L 226.769752 256.022215 
L 227.449821 258.603088 
L 228.12989 252.194897 
L 228.809959 240.463656 
L 229.490029 219.655366 
L 230.170098 217.763703 
L 230.850167 231.005342 
L 231.530236 213.423143 
L 232.210305 199.374982 
L 232.890374 245.669394 
L 233.570443 234.935308 
L 234.250513 235.756495 
L 234.930582 238.747962 
L 235.610651 217.705047 
L 236.29072 226.752767 
L 236.970789 248.763509 
L 237.650858 239.583812 
L 238.330927 227.002056 
L 239.010997 238.542665 
L 239.691066 263.280921 
L 240.371135 229.26032 
L 241.051204 208.261397 
L 241.731273 213.467136 
L 242.411342 261.022657 
L 243.091411 251.183078 
L 243.771481 243.733739 
L 244.45155 259.204314 
L 245.131619 229.920202 
L 245.811688 247.458408 
L 246.491757 189.96066 
L 247.171826 231.914513 
L 247.851895 262.078468 
L 248.531965 263.163608 
L 249.212034 248.176947 
L 249.892103 218.716866 
L 250.572172 206.648351 
L 251.252241 220.065959 
L 251.93231 252.986756 
L 252.612379 248.338252 
L 253.292449 233.336926 
L 253.972518 205.093962 
L 254.652587 168.023238 
L 255.332656 194.315884 
L 256.012725 234.700683 
L 256.692794 222.470864 
L 257.372863 241.798084 
L 258.052933 250.391219 
L 258.733002 242.839232 
L 259.413071 207.674835 
L 260.09314 192.497541 
L 260.773209 243.176505 
L 261.453278 253.353357 
L 262.133347 229.582929 
L 262.813417 221.781653 
L 263.493486 209.595826 
L 264.853624 229.729569 
L 265.533693 247.062479 
L 266.213762 201.398621 
L 266.893831 146.789691 
L 267.573901 176.117795 
L 268.25397 217.059828 
L 268.934039 224.362526 
L 269.614108 140.733437 
L 270.974246 255.303676 
L 271.654315 223.438691 
L 272.334385 177.51088 
L 273.014454 200.944035 
L 273.694523 214.845557 
L 274.374592 143.270318 
L 275.054661 153.945748 
L 275.73473 202.073167 
L 276.414799 266.829621 
L 277.094869 215.432119 
L 277.774938 182.115392 
L 278.455007 173.316961 
L 279.135076 202.073167 
L 279.815145 218.144968 
L 280.495214 199.829567 
L 281.175283 190.708527 
L 281.855353 204.639376 
L 282.535422 253.954584 
L 283.215491 198.700435 
L 283.89556 157.890378 
L 284.575629 184.798914 
L 285.255698 224.450511 
L 285.935767 229.993522 
L 286.615837 196.427507 
L 287.295906 172.305141 
L 287.975975 182.262033 
L 288.656044 189.652715 
L 289.336113 221.854973 
L 290.016182 227.529962 
L 290.696251 164.386553 
L 291.376321 141.877233 
L 292.05639 134.603863 
L 292.736459 179.387879 
L 293.416528 252.018929 
L 294.096597 243.983028 
L 295.456735 197.497983 
L 296.136805 193.568017 
L 296.816874 196.926085 
L 297.496943 216.751883 
L 298.177012 251.886952 
L 298.857081 253.93992 
L 299.53715 228.761742 
L 300.217219 239.583812 
L 300.897289 246.505245 
L 302.257427 144.79538 
L 302.937496 129.603422 
L 303.617565 187.922357 
L 304.297634 229.069687 
L 304.977703 223.68798 
L 305.657773 266.902942 
L 306.337842 221.693669 
L 307.017911 249.614024 
L 307.69798 247.546393 
L 308.378049 193.773314 
L 309.058118 184.095039 
L 309.738188 186.705241 
L 310.418257 162.949476 
L 311.098326 179.373214 
L 311.778395 230.081507 
L 312.458464 252.972092 
L 313.138533 255.904903 
L 313.818602 199.888223 
L 314.498672 169.343003 
L 315.178741 167.876598 
L 315.85881 146.863011 
L 316.538879 146.393761 
L 317.218948 207.498866 
L 317.899017 252.957428 
L 318.579086 198.86174 
L 319.259156 164.342561 
L 319.939225 157.259824 
L 320.619294 159.298127 
L 321.299363 154.06306 
L 321.979432 161.659039 
L 322.659501 200.445457 
L 323.33957 254.350513 
L 324.01964 230.389452 
L 325.379778 123.312543 
L 326.739916 80.992089 
L 327.419985 70.653932 
L 328.100054 117.813524 
L 329.460193 246.534573 
L 330.140262 211.502153 
L 330.820331 156.541285 
L 331.5004 131.685717 
L 332.180469 113.077035 
L 332.860538 133.313427 
L 333.540608 174.270124 
L 334.220677 176.029811 
L 334.900746 182.789939 
L 335.580815 242.633935 
L 336.260884 232.559732 
L 336.940953 206.076453 
L 337.621022 168.111222 
L 338.301092 111.713278 
L 338.981161 85.889882 
L 339.66123 91.667519 
L 340.341299 104.982478 
L 341.021368 159.342119 
L 341.701437 261.462578 
L 342.381506 194.682485 
L 343.741645 143.182334 
L 344.421714 103.32544 
L 345.101783 86.652413 
L 345.781852 106.58086 
L 346.461921 141.114702 
L 347.14199 186.118678 
L 347.82206 243.176505 
L 348.502129 238.571993 
L 349.182198 189.916668 
L 349.862267 130.233976 
L 350.542336 81.256042 
L 351.222405 80.992089 
L 351.902474 110.158888 
L 352.582544 118.429414 
L 353.262613 134.574535 
L 353.942682 205.181946 
L 354.622751 258.588424 
L 355.30282 227.867235 
L 355.982889 191.500386 
L 356.662958 146.423089 
L 357.343028 123.283215 
L 358.023097 120.306412 
L 358.703166 136.744815 
L 360.063304 190.884495 
L 360.743373 230.56542 
L 361.423442 230.257475 
L 362.103512 155.998715 
L 362.783581 133.885325 
L 363.46365 142.141186 
L 364.823788 96.726617 
L 365.503857 137.697978 
L 366.183926 202.498425 
L 366.863996 242.751248 
L 367.544065 248.528884 
L 368.224134 185.649429 
L 368.904203 142.727748 
L 369.584272 139.530985 
L 370.264341 143.460951 
L 370.94441 150.059774 
L 372.984618 231.489256 
L 373.664687 232.853013 
L 374.344756 168.859089 
L 375.024825 149.678509 
L 375.704894 144.736723 
L 376.384964 144.018185 
L 377.065033 163.609358 
L 378.425171 230.609413 
L 379.10524 252.370866 
L 379.785309 256.168855 
L 380.465378 248.499556 
L 381.145448 194.887782 
L 381.825517 183.171204 
L 382.505586 190.532558 
L 383.185655 168.287191 
L 383.865724 174.152812 
L 384.545793 211.472825 
L 385.225862 211.106223 
L 385.905932 217.323781 
L 386.586001 254.438497 
L 387.26607 205.504555 
L 387.946139 200.313481 
L 388.626208 181.000924 
L 389.306277 143.343638 
L 389.986346 155.00156 
L 390.666416 211.428832 
L 391.346485 242.545951 
L 392.026554 262.621038 
L 392.706623 207.572187 
L 393.386692 193.318728 
L 394.066761 201.970519 
L 394.74683 175.677873 
L 395.4269 179.534519 
L 396.106969 215.344134 
L 396.787038 203.906174 
L 397.467107 197.219366 
L 398.147176 247.297104 
L 398.827245 247.956986 
L 399.507314 233.27827 
L 400.867453 158.095675 
L 401.547522 160.119314 
L 402.90766 216.092001 
L 403.587729 243.983028 
L 404.267798 256.212848 
L 404.947868 265.627169 
L 405.627937 233.102301 
L 406.308006 210.021083 
L 406.988075 231.899849 
L 407.668144 231.811865 
L 408.348213 188.626231 
L 409.028282 179.549183 
L 409.708352 204.844673 
L 410.388421 205.563212 
L 411.06849 198.993716 
L 411.748559 225.418338 
L 412.428628 256.300832 
L 413.108697 211.707449 
L 414.468836 177.481552 
L 415.148905 159.884689 
L 415.828974 171.132017 
L 416.509043 192.336237 
L 417.189112 193.699993 
L 417.869181 206.105781 
L 418.54925 254.042568 
L 419.22932 210.739622 
L 419.909389 147.273604 
L 420.589458 125.673456 
L 421.269527 142.859725 
L 422.629665 167.216715 
L 423.989804 265.30456 
L 424.669873 253.441342 
L 425.349942 233.058309 
L 426.030011 190.532558 
L 426.71008 163.286749 
L 427.390149 165.838294 
L 428.070218 192.365565 
L 428.750288 231.679888 
L 429.430357 259.350955 
L 430.110426 262.738351 
L 430.790495 255.069052 
L 431.470564 254.541146 
L 432.150633 260.758704 
L 432.830703 253.294701 
L 434.190841 196.280867 
L 434.87091 189.388762 
L 435.550979 178.552028 
L 436.231048 179.974441 
L 437.591187 265.700489 
L 438.271256 234.744675 
L 439.631394 159.298127 
L 440.311463 127.110533 
L 440.991532 100.788559 
L 441.671601 121.919458 
L 442.351671 180.590331 
L 443.711809 245.126824 
L 444.391878 197.644623 
L 445.071947 125.585471 
L 445.752016 121.435544 
L 446.432085 111.889247 
L 447.112155 97.518475 
L 447.792224 127.726423 
L 449.152362 229.187 
L 449.832431 238.396024 
L 450.5125 198.040553 
L 451.192569 178.522699 
L 451.872639 151.731476 
L 452.552708 139.794938 
L 453.232777 164.753154 
L 453.912846 201.398621 
L 454.592915 222.925449 
L 455.272984 252.561499 
L 455.953053 243.455122 
L 456.633123 244.540262 
L 457.313192 255.655614 
L 457.993261 230.56542 
L 458.67333 213.437808 
L 459.353399 219.039475 
L 460.033468 216.869196 
L 460.713537 217.719711 
L 461.393607 226.224861 
L 462.073676 238.249384 
L 462.753745 264.483373 
L 463.433814 225.85826 
L 464.113883 208.950608 
L 464.793952 204.43408 
L 465.474021 185.356148 
L 466.154091 174.534077 
L 466.83416 206.604359 
L 467.514229 244.481606 
L 468.194298 255.919567 
L 468.874367 260.494751 
L 469.554436 229.582929 
L 470.234505 209.185232 
L 470.914575 197.072725 
L 471.594644 188.626231 
L 472.274713 195.049086 
L 472.954782 222.001614 
L 473.634851 258.852377 
L 474.31492 240.273023 
L 474.994989 215.637415 
L 475.675059 207.718827 
L 477.035197 197.732608 
L 478.395335 225.227705 
L 479.075404 216.546587 
L 479.755473 216.766547 
L 481.115612 239.598477 
L 481.795681 258.603088 
L 482.47575 253.910591 
L 483.155819 243.968364 
L 483.835888 244.921527 
L 484.515957 239.187883 
L 485.876096 186.998522 
L 486.556165 186.969193 
L 487.236234 201.193324 
L 488.596372 263.192936 
L 489.276441 256.242176 
L 489.956511 242.531287 
L 490.63658 225.814268 
L 491.316649 222.720153 
L 492.676787 234.700683 
L 493.356856 237.780134 
L 494.036925 239.642469 
L 494.716995 254.673122 
L 495.397064 254.423833 
L 496.077133 240.375671 
L 496.757202 237.985431 
L 497.437271 230.638741 
L 498.11734 227.104704 
L 498.797409 256.740753 
L 499.477479 232.222458 
L 500.157548 212.689941 
L 500.837617 204.170127 
L 501.517686 191.676354 
L 502.197755 202.219808 
L 502.877824 228.10186 
L 503.557893 237.325548 
L 504.237963 244.994848 
L 504.918032 260.186806 
L 505.598101 227.207352 
L 506.27817 209.991755 
L 506.958239 213.511128 
L 507.638308 237.472189 
L 508.318377 254.585138 
L 508.998447 236.13776 
L 509.678516 211.443496 
L 510.358585 219.347421 
L 511.038654 243.381802 
L 511.718723 262.269101 
L 512.398792 249.144774 
L 513.078861 217.778367 
L 513.758931 196.251538 
L 514.439 206.765664 
L 515.119069 239.745117 
L 515.799138 263.662186 
L 516.479207 262.430406 
L 517.159276 256.682097 
L 517.839345 249.804657 
L 518.519415 255.362333 
L 518.519415 255.362333 
" clip-path="url(#pfc7b1793c8)" style="fill: none; stroke: #1f77b4; stroke-width: 1.5; stroke-linecap: square"/>
   </g>
   <g id="line2d_17">
    <path d="M 71.713987 264.483862 
L 78.514679 265.073846 
L 81.234955 265.131524 
L 84.635301 264.963865 
L 91.435992 264.561581 
L 97.556615 264.635879 
L 102.997168 264.893966 
L 107.077583 265.21902 
L 110.477928 265.162319 
L 117.27862 264.819669 
L 122.039104 264.293229 
L 128.839795 263.164097 
L 130.880003 262.939248 
L 137.680694 261.751949 
L 140.400971 261.51879 
L 148.5618 261.291498 
L 151.282077 261.635614 
L 155.362492 262.482219 
L 158.762838 263.079046 
L 160.122976 263.098598 
L 163.523322 262.650855 
L 171.684151 261.353575 
L 175.084497 260.439516 
L 178.484843 259.655967 
L 183.925396 259.027368 
L 189.365949 257.254973 
L 190.726087 256.593135 
L 191.406157 256.423032 
L 197.526779 256.839491 
L 199.566986 257.053098 
L 200.927125 257.298476 
L 204.32747 257.662634 
L 209.087954 259.316739 
L 209.768023 259.586557 
L 211.128162 259.671609 
L 211.808231 259.591445 
L 213.168369 258.951115 
L 217.928853 255.527059 
L 218.608922 254.143261 
L 223.369406 235.49743 
L 226.089683 225.534673 
L 231.530236 208.345471 
L 233.570443 203.113337 
L 238.330927 192.212081 
L 239.010997 192.105033 
L 240.371135 194.55393 
L 245.811688 201.83121 
L 251.93231 200.753402 
L 252.612379 200.439592 
L 253.972518 200.87267 
L 258.733002 193.557263 
L 260.773209 188.589082 
L 266.213762 184.385387 
L 269.614108 176.988351 
L 273.014454 168.783814 
L 274.374592 164.441299 
L 277.094869 160.971784 
L 280.495214 156.846298 
L 281.175283 156.377048 
L 283.215491 154.45899 
L 286.615837 148.691129 
L 289.336113 150.171221 
L 290.016182 150.743119 
L 290.696251 151.531556 
L 291.376321 151.569683 
L 296.816874 149.850567 
L 298.177012 149.272803 
L 298.857081 150.476722 
L 300.897289 155.506492 
L 301.577358 156.827234 
L 302.257427 155.876515 
L 303.617565 152.962279 
L 309.058118 145.419091 
L 309.738188 146.292579 
L 310.418257 146.461216 
L 311.098326 146.413313 
L 311.778395 147.115721 
L 315.178741 151.83999 
L 318.579086 153.820615 
L 319.259156 152.720811 
L 321.979432 146.43091 
L 322.659501 146.48419 
L 324.699709 148.930153 
L 325.379778 148.720457 
L 326.059847 147.793689 
L 326.739916 146.173312 
L 329.460193 138.31338 
L 330.140262 134.532009 
L 333.540608 119.149419 
L 335.580815 114.162175 
L 338.301092 109.658844 
L 343.741645 93.268833 
L 345.101783 88.723955 
L 345.781852 87.50195 
L 346.461921 86.997018 
L 347.14199 87.185696 
L 349.862267 89.318826 
L 353.942682 91.395256 
L 357.343028 86.047765 
L 358.023097 85.950494 
L 358.703166 86.174365 
L 364.143719 95.298827 
L 368.224134 97.364503 
L 370.264341 98.371923 
L 370.94441 98.887609 
L 375.024825 110.534288 
L 377.065033 116.66875 
L 377.745102 118.76962 
L 378.425171 119.898263 
L 380.465378 122.332007 
L 382.505586 124.703184 
L 383.865724 127.745975 
L 384.545793 129.398614 
L 388.626208 143.710728 
L 391.346485 149.926331 
L 392.706623 150.241608 
L 395.4269 150.749962 
L 396.106969 151.265648 
L 400.187384 157.61616 
L 402.90766 159.493159 
L 403.587729 159.30937 
L 407.668144 157.338521 
L 408.348213 157.938281 
L 409.028282 158.31368 
L 414.468836 167.899571 
L 415.828974 169.002308 
L 416.509043 169.165079 
L 419.22932 167.059321 
L 419.909389 166.112512 
L 420.589458 164.445698 
L 426.71008 154.719032 
L 427.390149 154.211167 
L 428.070218 154.025912 
L 428.750288 153.25947 
L 433.510772 149.549954 
L 434.87091 150.374074 
L 438.951325 154.107541 
L 439.631394 154.087989 
L 440.311463 153.415887 
L 447.112155 145.011919 
L 447.792224 143.500544 
L 449.152362 139.406829 
L 453.232777 126.253174 
L 453.912846 124.982779 
L 455.272984 121.577297 
L 458.67333 115.117782 
L 459.353399 114.65782 
L 460.033468 116.061169 
L 460.713537 118.938745 
L 464.793952 141.018897 
L 466.154091 146.296001 
L 468.874367 156.455745 
L 472.274713 169.291679 
L 473.634851 175.365529 
L 474.31492 177.395523 
L 478.395335 187.375877 
L 479.075404 189.307132 
L 479.755473 190.406447 
L 480.435543 190.284247 
L 483.155819 188.19022 
L 483.835888 188.164314 
L 485.196027 188.651649 
L 485.876096 188.706395 
L 493.356856 193.270337 
L 499.477479 203.419327 
L 500.157548 203.917905 
L 500.837617 204.132489 
L 503.557893 203.324988 
L 505.598101 201.137112 
L 507.638308 201.60685 
L 508.318377 202.115204 
L 513.078861 207.535527 
L 513.758931 207.3708 
L 518.519415 201.048639 
L 518.519415 201.048639 
" clip-path="url(#pfc7b1793c8)" style="fill: none; stroke: #ff7f0e; stroke-width: 1.5; stroke-linecap: square"/>
   </g>
   <g id="line2d_18">
    <path d="M 71.713987 266.990926 
L 285.935767 266.990926 
L 286.615837 149.678509 
L 518.519415 149.678509 
L 518.519415 149.678509 
" clip-path="url(#pfc7b1793c8)" style="fill: none; stroke: #2ca02c; stroke-width: 1.5; stroke-linecap: square"/>
   </g>
   <g id="patch_3">
    <path d="M 72 270.72 
L 72 69.12 
" style="fill: none; stroke: #000000; stroke-width: 0.8; stroke-linejoin: miter; stroke-linecap: square"/>
   </g>
   <g id="patch_4">
    <path d="M 518.4 270.72 
L 518.4 69.12 
" style="fill: none; stroke: #000000; stroke-width: 0.8; stroke-linejoin: miter; stroke-linecap: square"/>
   </g>
   <g id="patch_5">
    <path d="M 72 270.72 
L 518.4 270.72 
" style="fill: none; stroke: #000000; stroke-width: 0.8; stroke-linejoin: miter; stroke-linecap: square"/>
   </g>
   <g id="patch_6">
    <path d="M 72 69.12 
L 518.4 69.12 
" style="fill: none; stroke: #000000; stroke-width: 0.8; stroke-linejoin: miter; stroke-linecap: square"/>
   </g>
  </g>
  <g id="axes_2">
   <g id="patch_7">
    <path d="M 72 512.64 
L 518.4 512.64 
L 518.4 311.04 
L 72 311.04 
z
" style="fill: #ffffff"/>
   </g>
   <g id="matplotlib.axis_3">
    <g id="xtick_9">
     <g id="line2d_19">
      <g>
       <use xlink:href="#mfd78f3bac0" x="92.290909" y="512.64" style="stroke: #000000; stroke-width: 0.8"/>
      </g>
     </g>
     <g id="text_16">
      <!-- 0 -->
      <g transform="translate(89.109659 527.238438) scale(0.1 -0.1)">
       <use xlink:href="#DejaVuSans-30"/>
      </g>
     </g>
    </g>
    <g id="xtick_10">
     <g id="line2d_20">
      <g>
       <use xlink:href="#mfd78f3bac0" x="180.512253" y="512.64" style="stroke: #000000; stroke-width: 0.8"/>
      </g>
     </g>
     <g id="text_17">
      <!-- 5 -->
      <g transform="translate(177.331003 527.238438) scale(0.1 -0.1)">
       <use xlink:href="#DejaVuSans-35"/>
      </g>
     </g>
    </g>
    <g id="xtick_11">
     <g id="line2d_21">
      <g>
       <use xlink:href="#mfd78f3bac0" x="268.733597" y="512.64" style="stroke: #000000; stroke-width: 0.8"/>
      </g>
     </g>
     <g id="text_18">
      <!-- 10 -->
      <g transform="translate(262.371097 527.238438) scale(0.1 -0.1)">
       <use xlink:href="#DejaVuSans-31"/>
       <use xlink:href="#DejaVuSans-30" x="63.623047"/>
      </g>
     </g>
    </g>
    <g id="xtick_12">
     <g id="line2d_22">
      <g>
       <use xlink:href="#mfd78f3bac0" x="356.954941" y="512.64" style="stroke: #000000; stroke-width: 0.8"/>
      </g>
     </g>
     <g id="text_19">
      <!-- 15 -->
      <g transform="translate(350.592441 527.238438) scale(0.1 -0.1)">
       <use xlink:href="#DejaVuSans-31"/>
       <use xlink:href="#DejaVuSans-35" x="63.623047"/>
      </g>
     </g>
    </g>
    <g id="xtick_13">
     <g id="line2d_23">
      <g>
       <use xlink:href="#mfd78f3bac0" x="445.176285" y="512.64" style="stroke: #000000; stroke-width: 0.8"/>
      </g>
     </g>
     <g id="text_20">
      <!-- 20 -->
      <g transform="translate(438.813785 527.238438) scale(0.1 -0.1)">
       <use xlink:href="#DejaVuSans-32"/>
       <use xlink:href="#DejaVuSans-30" x="63.623047"/>
      </g>
     </g>
    </g>
   </g>
   <g id="matplotlib.axis_4">
    <g id="ytick_8">
     <g id="line2d_24">
      <g>
       <use xlink:href="#med74b066ad" x="72" y="488.909315" style="stroke: #000000; stroke-width: 0.8"/>
      </g>
     </g>
     <g id="text_21">
      <!-- 0.75 -->
      <g transform="translate(42.734375 492.708534) scale(0.1 -0.1)">
       <use xlink:href="#DejaVuSans-30"/>
       <use xlink:href="#DejaVuSans-2e" x="63.623047"/>
       <use xlink:href="#DejaVuSans-37" x="95.410156"/>
       <use xlink:href="#DejaVuSans-35" x="159.033203"/>
      </g>
     </g>
    </g>
    <g id="ytick_9">
     <g id="line2d_25">
      <g>
       <use xlink:href="#med74b066ad" x="72" y="460.44727" style="stroke: #000000; stroke-width: 0.8"/>
      </g>
     </g>
     <g id="text_22">
      <!-- 0.80 -->
      <g transform="translate(42.734375 464.246488) scale(0.1 -0.1)">
       <use xlink:href="#DejaVuSans-30"/>
       <use xlink:href="#DejaVuSans-2e" x="63.623047"/>
       <use xlink:href="#DejaVuSans-38" x="95.410156"/>
       <use xlink:href="#DejaVuSans-30" x="159.033203"/>
      </g>
     </g>
    </g>
    <g id="ytick_10">
     <g id="line2d_26">
      <g>
       <use xlink:href="#med74b066ad" x="72" y="431.985224" style="stroke: #000000; stroke-width: 0.8"/>
      </g>
     </g>
     <g id="text_23">
      <!-- 0.85 -->
      <g transform="translate(42.734375 435.784443) scale(0.1 -0.1)">
       <use xlink:href="#DejaVuSans-30"/>
       <use xlink:href="#DejaVuSans-2e" x="63.623047"/>
       <use xlink:href="#DejaVuSans-38" x="95.410156"/>
       <use xlink:href="#DejaVuSans-35" x="159.033203"/>
      </g>
     </g>
    </g>
    <g id="ytick_11">
     <g id="line2d_27">
      <g>
       <use xlink:href="#med74b066ad" x="72" y="403.523178" style="stroke: #000000; stroke-width: 0.8"/>
      </g>
     </g>
     <g id="text_24">
      <!-- 0.90 -->
      <g transform="translate(42.734375 407.322397) scale(0.1 -0.1)">
       <use xlink:href="#DejaVuSans-30"/>
       <use xlink:href="#DejaVuSans-2e" x="63.623047"/>
       <use xlink:href="#DejaVuSans-39" x="95.410156"/>
       <use xlink:href="#DejaVuSans-30" x="159.033203"/>
      </g>
     </g>
    </g>
    <g id="ytick_12">
     <g id="line2d_28">
      <g>
       <use xlink:href="#med74b066ad" x="72" y="375.061133" style="stroke: #000000; stroke-width: 0.8"/>
      </g>
     </g>
     <g id="text_25">
      <!-- 0.95 -->
      <g transform="translate(42.734375 378.860351) scale(0.1 -0.1)">
       <use xlink:href="#DejaVuSans-30"/>
       <use xlink:href="#DejaVuSans-2e" x="63.623047"/>
       <use xlink:href="#DejaVuSans-39" x="95.410156"/>
       <use xlink:href="#DejaVuSans-35" x="159.033203"/>
      </g>
     </g>
    </g>
    <g id="ytick_13">
     <g id="line2d_29">
      <g>
       <use xlink:href="#med74b066ad" x="72" y="346.599087" style="stroke: #000000; stroke-width: 0.8"/>
      </g>
     </g>
     <g id="text_26">
      <!-- 1.00 -->
      <g transform="translate(42.734375 350.398306) scale(0.1 -0.1)">
       <use xlink:href="#DejaVuSans-31"/>
       <use xlink:href="#DejaVuSans-2e" x="63.623047"/>
       <use xlink:href="#DejaVuSans-30" x="95.410156"/>
       <use xlink:href="#DejaVuSans-30" x="159.033203"/>
      </g>
     </g>
    </g>
    <g id="ytick_14">
     <g id="line2d_30">
      <g>
       <use xlink:href="#med74b066ad" x="72" y="318.137041" style="stroke: #000000; stroke-width: 0.8"/>
      </g>
     </g>
     <g id="text_27">
      <!-- 1.05 -->
      <g transform="translate(42.734375 321.93626) scale(0.1 -0.1)">
       <use xlink:href="#DejaVuSans-31"/>
       <use xlink:href="#DejaVuSans-2e" x="63.623047"/>
       <use xlink:href="#DejaVuSans-30" x="95.410156"/>
       <use xlink:href="#DejaVuSans-35" x="159.033203"/>
      </g>
     </g>
    </g>
   </g>
   <g id="line2d_31">
    <path d="M 92.290909 455.395257 
L 109.935178 449.987468 
L 127.579447 447.888392 
L 145.223715 445.771527 
L 162.867984 444.793145 
L 180.512253 440.790669 
L 198.156522 437.00166 
L 215.800791 434.279976 
L 233.445059 431.967435 
L 251.089328 427.128887 
L 268.733597 422.699482 
L 286.377866 418.483541 
L 304.022134 420.956181 
L 321.666403 420.315785 
L 339.310672 413.858459 
L 356.954941 413.467106 
L 374.599209 422.610538 
L 392.243478 428.712089 
L 409.887747 417.202749 
L 427.532016 417.843145 
L 445.176285 424.709614 
L 462.820553 427.484663 
L 480.464822 425.225488 
L 498.109091 425.652419 
" clip-path="url(#p93e741ed8f)" style="fill: none; stroke: #1f77b4; stroke-width: 1.5; stroke-linecap: square"/>
   </g>
   <g id="line2d_32">
    <path d="M 92.290909 372.570704 
L 109.935178 376.003938 
L 127.579447 376.626545 
L 145.223715 380.415555 
L 162.867984 380.717964 
L 180.512253 385.360835 
L 198.156522 385.556512 
L 215.800791 391.871528 
L 233.445059 391.747007 
L 251.089328 397.048063 
L 268.733597 401.050538 
L 286.377866 401.210637 
L 304.022134 401.922188 
L 321.666403 403.220769 
L 339.310672 408.539614 
L 356.954941 402.242386 
L 374.599209 397.065852 
L 392.243478 394.557634 
L 409.887747 402.989515 
L 427.532016 400.125522 
L 445.176285 395.002353 
L 462.820553 395.447073 
L 480.464822 400.961594 
" clip-path="url(#p93e741ed8f)" style="fill: none; stroke: #ff7f0e; stroke-width: 1.5; stroke-linecap: square"/>
   </g>
   <g id="patch_8">
    <path d="M 72 512.64 
L 72 311.04 
" style="fill: none; stroke: #000000; stroke-width: 0.8; stroke-linejoin: miter; stroke-linecap: square"/>
   </g>
   <g id="patch_9">
    <path d="M 518.4 512.64 
L 518.4 311.04 
" style="fill: none; stroke: #000000; stroke-width: 0.8; stroke-linejoin: miter; stroke-linecap: square"/>
   </g>
   <g id="patch_10">
    <path d="M 72 512.64 
L 518.4 512.64 
" style="fill: none; stroke: #000000; stroke-width: 0.8; stroke-linejoin: miter; stroke-linecap: square"/>
   </g>
   <g id="patch_11">
    <path d="M 72 311.04 
L 518.4 311.04 
" style="fill: none; stroke: #000000; stroke-width: 0.8; stroke-linejoin: miter; stroke-linecap: square"/>
   </g>
  </g>
  <g id="text_28">
   <!-- Saturday_11:54pm.m4a - - 4066.0 BPH  -->
   <g transform="translate(170.5725 20.638125) scale(0.12 -0.12)">
    <defs>
     <path id="DejaVuSans-53" d="M 3425 4513 
L 3425 3897 
Q 3066 4069 2747 4153 
Q 2428 4238 2131 4238 
Q 1616 4238 1336 4038 
Q 1056 3838 1056 3469 
Q 1056 3159 1242 3001 
Q 1428 2844 1947 2747 
L 2328 2669 
Q 3034 2534 3370 2195 
Q 3706 1856 3706 1288 
Q 3706 609 3251 259 
Q 2797 -91 1919 -91 
Q 1588 -91 1214 -16 
Q 841 59 441 206 
L 441 856 
Q 825 641 1194 531 
Q 1563 422 1919 422 
Q 2459 422 2753 634 
Q 3047 847 3047 1241 
Q 3047 1584 2836 1778 
Q 2625 1972 2144 2069 
L 1759 2144 
Q 1053 2284 737 2584 
Q 422 2884 422 3419 
Q 422 4038 858 4394 
Q 1294 4750 2059 4750 
Q 2388 4750 2728 4690 
Q 3069 4631 3425 4513 
z
" transform="scale(0.015625)"/>
     <path id="DejaVuSans-61" d="M 2194 1759 
Q 1497 1759 1228 1600 
Q 959 1441 959 1056 
Q 959 750 1161 570 
Q 1363 391 1709 391 
Q 2188 391 2477 730 
Q 2766 1069 2766 1631 
L 2766 1759 
L 2194 1759 
z
M 3341 1997 
L 3341 0 
L 2766 0 
L 2766 531 
Q 2569 213 2275 61 
Q 1981 -91 1556 -91 
Q 1019 -91 701 211 
Q 384 513 384 1019 
Q 384 1609 779 1909 
Q 1175 2209 1959 2209 
L 2766 2209 
L 2766 2266 
Q 2766 2663 2505 2880 
Q 2244 3097 1772 3097 
Q 1472 3097 1187 3025 
Q 903 2953 641 2809 
L 641 3341 
Q 956 3463 1253 3523 
Q 1550 3584 1831 3584 
Q 2591 3584 2966 3190 
Q 3341 2797 3341 1997 
z
" transform="scale(0.015625)"/>
     <path id="DejaVuSans-74" d="M 1172 4494 
L 1172 3500 
L 2356 3500 
L 2356 3053 
L 1172 3053 
L 1172 1153 
Q 1172 725 1289 603 
Q 1406 481 1766 481 
L 2356 481 
L 2356 0 
L 1766 0 
Q 1100 0 847 248 
Q 594 497 594 1153 
L 594 3053 
L 172 3053 
L 172 3500 
L 594 3500 
L 594 4494 
L 1172 4494 
z
" transform="scale(0.015625)"/>
     <path id="DejaVuSans-75" d="M 544 1381 
L 544 3500 
L 1119 3500 
L 1119 1403 
Q 1119 906 1312 657 
Q 1506 409 1894 409 
Q 2359 409 2629 706 
Q 2900 1003 2900 1516 
L 2900 3500 
L 3475 3500 
L 3475 0 
L 2900 0 
L 2900 538 
Q 2691 219 2414 64 
Q 2138 -91 1772 -91 
Q 1169 -91 856 284 
Q 544 659 544 1381 
z
M 1991 3584 
L 1991 3584 
z
" transform="scale(0.015625)"/>
     <path id="DejaVuSans-72" d="M 2631 2963 
Q 2534 3019 2420 3045 
Q 2306 3072 2169 3072 
Q 1681 3072 1420 2755 
Q 1159 2438 1159 1844 
L 1159 0 
L 581 0 
L 581 3500 
L 1159 3500 
L 1159 2956 
Q 1341 3275 1631 3429 
Q 1922 3584 2338 3584 
Q 2397 3584 2469 3576 
Q 2541 3569 2628 3553 
L 2631 2963 
z
" transform="scale(0.015625)"/>
     <path id="DejaVuSans-64" d="M 2906 2969 
L 2906 4863 
L 3481 4863 
L 3481 0 
L 2906 0 
L 2906 525 
Q 2725 213 2448 61 
Q 2172 -91 1784 -91 
Q 1150 -91 751 415 
Q 353 922 353 1747 
Q 353 2572 751 3078 
Q 1150 3584 1784 3584 
Q 2172 3584 2448 3432 
Q 2725 3281 2906 2969 
z
M 947 1747 
Q 947 1113 1208 752 
Q 1469 391 1925 391 
Q 2381 391 2643 752 
Q 2906 1113 2906 1747 
Q 2906 2381 2643 2742 
Q 2381 3103 1925 3103 
Q 1469 3103 1208 2742 
Q 947 2381 947 1747 
z
" transform="scale(0.015625)"/>
     <path id="DejaVuSans-79" d="M 2059 -325 
Q 1816 -950 1584 -1140 
Q 1353 -1331 966 -1331 
L 506 -1331 
L 506 -850 
L 844 -850 
Q 1081 -850 1212 -737 
Q 1344 -625 1503 -206 
L 1606 56 
L 191 3500 
L 800 3500 
L 1894 763 
L 2988 3500 
L 3597 3500 
L 2059 -325 
z
" transform="scale(0.015625)"/>
     <path id="DejaVuSans-5f" d="M 3263 -1063 
L 3263 -1509 
L -63 -1509 
L -63 -1063 
L 3263 -1063 
z
" transform="scale(0.015625)"/>
     <path id="DejaVuSans-3a" d="M 750 794 
L 1409 794 
L 1409 0 
L 750 0 
L 750 794 
z
M 750 3309 
L 1409 3309 
L 1409 2516 
L 750 2516 
L 750 3309 
z
" transform="scale(0.015625)"/>
     <path id="DejaVuSans-70" d="M 1159 525 
L 1159 -1331 
L 581 -1331 
L 581 3500 
L 1159 3500 
L 1159 2969 
Q 1341 3281 1617 3432 
Q 1894 3584 2278 3584 
Q 2916 3584 3314 3078 
Q 3713 2572 3713 1747 
Q 3713 922 3314 415 
Q 2916 -91 2278 -91 
Q 1894 -91 1617 61 
Q 1341 213 1159 525 
z
M 3116 1747 
Q 3116 2381 2855 2742 
Q 2594 3103 2138 3103 
Q 1681 3103 1420 2742 
Q 1159 2381 1159 1747 
Q 1159 1113 1420 752 
Q 1681 391 2138 391 
Q 2594 391 2855 752 
Q 3116 1113 3116 1747 
z
" transform="scale(0.015625)"/>
     <path id="DejaVuSans-6d" d="M 3328 2828 
Q 3544 3216 3844 3400 
Q 4144 3584 4550 3584 
Q 5097 3584 5394 3201 
Q 5691 2819 5691 2113 
L 5691 0 
L 5113 0 
L 5113 2094 
Q 5113 2597 4934 2840 
Q 4756 3084 4391 3084 
Q 3944 3084 3684 2787 
Q 3425 2491 3425 1978 
L 3425 0 
L 2847 0 
L 2847 2094 
Q 2847 2600 2669 2842 
Q 2491 3084 2119 3084 
Q 1678 3084 1418 2786 
Q 1159 2488 1159 1978 
L 1159 0 
L 581 0 
L 581 3500 
L 1159 3500 
L 1159 2956 
Q 1356 3278 1631 3431 
Q 1906 3584 2284 3584 
Q 2666 3584 2933 3390 
Q 3200 3197 3328 2828 
z
" transform="scale(0.015625)"/>
     <path id="DejaVuSans-20" transform="scale(0.015625)"/>
     <path id="DejaVuSans-2d" d="M 313 2009 
L 1997 2009 
L 1997 1497 
L 313 1497 
L 313 2009 
z
" transform="scale(0.015625)"/>
     <path id="DejaVuSans-42" d="M 1259 2228 
L 1259 519 
L 2272 519 
Q 2781 519 3026 730 
Q 3272 941 3272 1375 
Q 3272 1813 3026 2020 
Q 2781 2228 2272 2228 
L 1259 2228 
z
M 1259 4147 
L 1259 2741 
L 2194 2741 
Q 2656 2741 2882 2914 
Q 3109 3088 3109 3444 
Q 3109 3797 2882 3972 
Q 2656 4147 2194 4147 
L 1259 4147 
z
M 628 4666 
L 2241 4666 
Q 2963 4666 3353 4366 
Q 3744 4066 3744 3513 
Q 3744 3084 3544 2831 
Q 3344 2578 2956 2516 
Q 3422 2416 3680 2098 
Q 3938 1781 3938 1306 
Q 3938 681 3513 340 
Q 3088 0 2303 0 
L 628 0 
L 628 4666 
z
" transform="scale(0.015625)"/>
     <path id="DejaVuSans-50" d="M 1259 4147 
L 1259 2394 
L 2053 2394 
Q 2494 2394 2734 2622 
Q 2975 2850 2975 3272 
Q 2975 3691 2734 3919 
Q 2494 4147 2053 4147 
L 1259 4147 
z
M 628 4666 
L 2053 4666 
Q 2838 4666 3239 4311 
Q 3641 3956 3641 3272 
Q 3641 2581 3239 2228 
Q 2838 1875 2053 1875 
L 1259 1875 
L 1259 0 
L 628 0 
L 628 4666 
z
" transform="scale(0.015625)"/>
     <path id="DejaVuSans-48" d="M 628 4666 
L 1259 4666 
L 1259 2753 
L 3553 2753 
L 3553 4666 
L 4184 4666 
L 4184 0 
L 3553 0 
L 3553 2222 
L 1259 2222 
L 1259 0 
L 628 0 
L 628 4666 
z
" transform="scale(0.015625)"/>
    </defs>
    <use xlink:href="#DejaVuSans-53"/>
    <use xlink:href="#DejaVuSans-61" x="63.476562"/>
    <use xlink:href="#DejaVuSans-74" x="124.755859"/>
    <use xlink:href="#DejaVuSans-75" x="163.964844"/>
    <use xlink:href="#DejaVuSans-72" x="227.34375"/>
    <use xlink:href="#DejaVuSans-64" x="266.707031"/>
    <use xlink:href="#DejaVuSans-61" x="330.183594"/>
    <use xlink:href="#DejaVuSans-79" x="391.462891"/>
    <use xlink:href="#DejaVuSans-5f" x="450.642578"/>
    <use xlink:href="#DejaVuSans-31" x="500.642578"/>
    <use xlink:href="#DejaVuSans-31" x="564.265625"/>
    <use xlink:href="#DejaVuSans-3a" x="627.888672"/>
    <use xlink:href="#DejaVuSans-35" x="661.580078"/>
    <use xlink:href="#DejaVuSans-34" x="725.203125"/>
    <use xlink:href="#DejaVuSans-70" x="788.826172"/>
    <use xlink:href="#DejaVuSans-6d" x="852.302734"/>
    <use xlink:href="#DejaVuSans-2e" x="949.714844"/>
    <use xlink:href="#DejaVuSans-6d" x="981.501953"/>
    <use xlink:href="#DejaVuSans-34" x="1078.914062"/>
    <use xlink:href="#DejaVuSans-61" x="1142.537109"/>
    <use xlink:href="#DejaVuSans-20" x="1203.816406"/>
    <use xlink:href="#DejaVuSans-2d" x="1235.603516"/>
    <use xlink:href="#DejaVuSans-2d" x="1271.6875"/>
    <use xlink:href="#DejaVuSans-20" x="1307.771484"/>
    <use xlink:href="#DejaVuSans-34" x="1339.558594"/>
    <use xlink:href="#DejaVuSans-30" x="1403.181641"/>
    <use xlink:href="#DejaVuSans-36" x="1466.804688"/>
    <use xlink:href="#DejaVuSans-36" x="1530.427734"/>
    <use xlink:href="#DejaVuSans-2e" x="1594.050781"/>
    <use xlink:href="#DejaVuSans-30" x="1625.837891"/>
    <use xlink:href="#DejaVuSans-20" x="1689.460938"/>
    <use xlink:href="#DejaVuSans-42" x="1721.248047"/>
    <use xlink:href="#DejaVuSans-50" x="1789.851562"/>
    <use xlink:href="#DejaVuSans-48" x="1850.154297"/>
    <use xlink:href="#DejaVuSans-20" x="1925.349609"/>
   </g>
   <!--  gain: 20dB, threshold: 8000 -->
   <g transform="translate(202.38375 34.40925) scale(0.12 -0.12)">
    <defs>
     <path id="DejaVuSans-67" d="M 2906 1791 
Q 2906 2416 2648 2759 
Q 2391 3103 1925 3103 
Q 1463 3103 1205 2759 
Q 947 2416 947 1791 
Q 947 1169 1205 825 
Q 1463 481 1925 481 
Q 2391 481 2648 825 
Q 2906 1169 2906 1791 
z
M 3481 434 
Q 3481 -459 3084 -895 
Q 2688 -1331 1869 -1331 
Q 1566 -1331 1297 -1286 
Q 1028 -1241 775 -1147 
L 775 -588 
Q 1028 -725 1275 -790 
Q 1522 -856 1778 -856 
Q 2344 -856 2625 -561 
Q 2906 -266 2906 331 
L 2906 616 
Q 2728 306 2450 153 
Q 2172 0 1784 0 
Q 1141 0 747 490 
Q 353 981 353 1791 
Q 353 2603 747 3093 
Q 1141 3584 1784 3584 
Q 2172 3584 2450 3431 
Q 2728 3278 2906 2969 
L 2906 3500 
L 3481 3500 
L 3481 434 
z
" transform="scale(0.015625)"/>
     <path id="DejaVuSans-69" d="M 603 3500 
L 1178 3500 
L 1178 0 
L 603 0 
L 603 3500 
z
M 603 4863 
L 1178 4863 
L 1178 4134 
L 603 4134 
L 603 4863 
z
" transform="scale(0.015625)"/>
     <path id="DejaVuSans-6e" d="M 3513 2113 
L 3513 0 
L 2938 0 
L 2938 2094 
Q 2938 2591 2744 2837 
Q 2550 3084 2163 3084 
Q 1697 3084 1428 2787 
Q 1159 2491 1159 1978 
L 1159 0 
L 581 0 
L 581 3500 
L 1159 3500 
L 1159 2956 
Q 1366 3272 1645 3428 
Q 1925 3584 2291 3584 
Q 2894 3584 3203 3211 
Q 3513 2838 3513 2113 
z
" transform="scale(0.015625)"/>
     <path id="DejaVuSans-2c" d="M 750 794 
L 1409 794 
L 1409 256 
L 897 -744 
L 494 -744 
L 750 256 
L 750 794 
z
" transform="scale(0.015625)"/>
     <path id="DejaVuSans-68" d="M 3513 2113 
L 3513 0 
L 2938 0 
L 2938 2094 
Q 2938 2591 2744 2837 
Q 2550 3084 2163 3084 
Q 1697 3084 1428 2787 
Q 1159 2491 1159 1978 
L 1159 0 
L 581 0 
L 581 4863 
L 1159 4863 
L 1159 2956 
Q 1366 3272 1645 3428 
Q 1925 3584 2291 3584 
Q 2894 3584 3203 3211 
Q 3513 2838 3513 2113 
z
" transform="scale(0.015625)"/>
     <path id="DejaVuSans-65" d="M 3597 1894 
L 3597 1613 
L 953 1613 
Q 991 1019 1311 708 
Q 1631 397 2203 397 
Q 2534 397 2845 478 
Q 3156 559 3463 722 
L 3463 178 
Q 3153 47 2828 -22 
Q 2503 -91 2169 -91 
Q 1331 -91 842 396 
Q 353 884 353 1716 
Q 353 2575 817 3079 
Q 1281 3584 2069 3584 
Q 2775 3584 3186 3129 
Q 3597 2675 3597 1894 
z
M 3022 2063 
Q 3016 2534 2758 2815 
Q 2500 3097 2075 3097 
Q 1594 3097 1305 2825 
Q 1016 2553 972 2059 
L 3022 2063 
z
" transform="scale(0.015625)"/>
     <path id="DejaVuSans-73" d="M 2834 3397 
L 2834 2853 
Q 2591 2978 2328 3040 
Q 2066 3103 1784 3103 
Q 1356 3103 1142 2972 
Q 928 2841 928 2578 
Q 928 2378 1081 2264 
Q 1234 2150 1697 2047 
L 1894 2003 
Q 2506 1872 2764 1633 
Q 3022 1394 3022 966 
Q 3022 478 2636 193 
Q 2250 -91 1575 -91 
Q 1294 -91 989 -36 
Q 684 19 347 128 
L 347 722 
Q 666 556 975 473 
Q 1284 391 1588 391 
Q 1994 391 2212 530 
Q 2431 669 2431 922 
Q 2431 1156 2273 1281 
Q 2116 1406 1581 1522 
L 1381 1569 
Q 847 1681 609 1914 
Q 372 2147 372 2553 
Q 372 3047 722 3315 
Q 1072 3584 1716 3584 
Q 2034 3584 2315 3537 
Q 2597 3491 2834 3397 
z
" transform="scale(0.015625)"/>
     <path id="DejaVuSans-6f" d="M 1959 3097 
Q 1497 3097 1228 2736 
Q 959 2375 959 1747 
Q 959 1119 1226 758 
Q 1494 397 1959 397 
Q 2419 397 2687 759 
Q 2956 1122 2956 1747 
Q 2956 2369 2687 2733 
Q 2419 3097 1959 3097 
z
M 1959 3584 
Q 2709 3584 3137 3096 
Q 3566 2609 3566 1747 
Q 3566 888 3137 398 
Q 2709 -91 1959 -91 
Q 1206 -91 779 398 
Q 353 888 353 1747 
Q 353 2609 779 3096 
Q 1206 3584 1959 3584 
z
" transform="scale(0.015625)"/>
     <path id="DejaVuSans-6c" d="M 603 4863 
L 1178 4863 
L 1178 0 
L 603 0 
L 603 4863 
z
" transform="scale(0.015625)"/>
    </defs>
    <use xlink:href="#DejaVuSans-20"/>
    <use xlink:href="#DejaVuSans-67" x="31.787109"/>
    <use xlink:href="#DejaVuSans-61" x="95.263672"/>
    <use xlink:href="#DejaVuSans-69" x="156.542969"/>
    <use xlink:href="#DejaVuSans-6e" x="184.326172"/>
    <use xlink:href="#DejaVuSans-3a" x="247.705078"/>
    <use xlink:href="#DejaVuSans-20" x="281.396484"/>
    <use xlink:href="#DejaVuSans-32" x="313.183594"/>
    <use xlink:href="#DejaVuSans-30" x="376.806641"/>
    <use xlink:href="#DejaVuSans-64" x="440.429688"/>
    <use xlink:href="#DejaVuSans-42" x="503.90625"/>
    <use xlink:href="#DejaVuSans-2c" x="572.509766"/>
    <use xlink:href="#DejaVuSans-20" x="604.296875"/>
    <use xlink:href="#DejaVuSans-74" x="636.083984"/>
    <use xlink:href="#DejaVuSans-68" x="675.292969"/>
    <use xlink:href="#DejaVuSans-72" x="738.671875"/>
    <use xlink:href="#DejaVuSans-65" x="777.535156"/>
    <use xlink:href="#DejaVuSans-73" x="839.058594"/>
    <use xlink:href="#DejaVuSans-68" x="891.158203"/>
    <use xlink:href="#DejaVuSans-6f" x="954.537109"/>
    <use xlink:href="#DejaVuSans-6c" x="1015.71875"/>
    <use xlink:href="#DejaVuSans-64" x="1043.501953"/>
    <use xlink:href="#DejaVuSans-3a" x="1106.978516"/>
    <use xlink:href="#DejaVuSans-20" x="1140.669922"/>
    <use xlink:href="#DejaVuSans-38" x="1172.457031"/>
    <use xlink:href="#DejaVuSans-30" x="1236.080078"/>
    <use xlink:href="#DejaVuSans-30" x="1299.703125"/>
    <use xlink:href="#DejaVuSans-30" x="1363.326172"/>
   </g>
  </g>
 </g>
 <defs>
  <clipPath id="pfc7b1793c8">
   <rect x="72" y="69.12" width="446.4" height="201.6"/>
  </clipPath>
  <clipPath id="p93e741ed8f">
   <rect x="72" y="311.04" width="446.4" height="201.6"/>
  </clipPath>
 </defs>
</svg>
